<svg xmlns="http://www.w3.org/2000/svg" viewBox="0 0 240 240" role="img" aria-label="تصویر پیش‌فرض حساب کاربری"><defs><linearGradient id="bg" x1="0" y1="0" x2="1" y2="1"><stop stop-color="#e9f5ff"/><stop offset="1" stop-color="#f1edff"/></linearGradient><linearGradient id="shirt" x1="0" y1="0" x2="1" y2="1"><stop stop-color="#2679d9"/><stop offset="1" stop-color="#7259df"/></linearGradient></defs><rect width="240" height="240" rx="48" fill="url(#bg)"/><circle cx="120" cy="92" r="48" fill="#f4c7a8"/><path d="M72 91c3-43 27-61 50-61 30 0 50 23 50 59-12-13-28-19-46-19-20 0-37 7-54 21z" fill="#25304a"/><circle cx="101" cy="94" r="5" fill="#25304a"/><circle cx="139" cy="94" r="5" fill="#25304a"/><path d="M105 116c10 8 20 8 30 0" fill="none" stroke="#c06d63" stroke-width="4" stroke-linecap="round"/><path d="M55 213c5-50 31-78 65-78s60 28 65 78" fill="url(#shirt)"/><path d="M87 143c9 13 20 20 33 20s24-7 33-20" fill="#fff" opacity=".8"/><circle cx="177" cy="47" r="12" fill="#fff" opacity=".7"/><path d="M177 40v14M170 47h14" stroke="#7259df" stroke-width="3" stroke-linecap="round"/></svg>